<svg id="Layer_1" data-name="Layer 1" xmlns="http://www.w3.org/2000/svg" viewBox="0 0 299.42 406.43"><defs><style>.cls-1{fill:#737373;}</style></defs><title>callN</title><path class="cls-1" d="M285.34,391.44c9-5.95,14.45-13,16.2-22.13a33.33,33.33,0,0,0-4.91-23.67l-32.42-57c-5.55-10.34-12.94-14.51-18.23-16.1-10.12-3.05-19.15,1.46-20.87,2.39l-22.76,12a18.08,18.08,0,0,1-21.18-3,265.33,265.33,0,0,1-45.89-60.13l-1.23-2.3a268.47,268.47,0,0,1-28-70.16,18.17,18.17,0,0,1,8.42-20.13l21.83-13.68c1.85-1.37,10.12-6.59,12.72-16.9,1.59-5.32,1.63-13.5-4-23.41L112.64,19.66A32.82,32.82,0,0,0,95,3.25c-8.24-3-17.68-2-26.81,3C67,6.84,44.5,17.9,32.53,35.52c-6.17,7.78-71,91.46,11.79,237l2,3c46.17,81.89,99.44,113.88,139.07,125.82,30.82,9.28,53.28,6.4,57.77,5.83C263.81,405.69,284.77,391.75,285.34,391.44ZM275.57,376c-4.84,3.37-20.88,12-34.66,13.19l-1,.18C235.88,390,139.74,405,62,266.73l-1.88-3.4C-18.37,125.82,43.48,50.42,46.43,47l.7-.75C56.47,32.64,75.61,23,76.23,22.67Q83.1,19,88.38,20.55l.44.13c4.84,1.46,7.49,7.08,7.49,7.08l32.9,58.62C131.5,90,132,93,131.68,95.81c-1.05,3.54-4.63,5.84-4.63,5.84h0l-22.4,13.94a37,37,0,0,0-16.25,40,284.78,284.78,0,0,0,29.91,75.08l1.24,2.3a293,293,0,0,0,48.92,64.45c11.1,11.06,28.49,13.88,42.24,6.45L233.91,292a10,10,0,0,1,7-.79h0c2.66.79,4.92,2.91,7,6.94l32.73,57.6.3.57s3.35,4.87,2.34,9.87c0,3.38-3,6.83-7.71,9.75Z" transform="translate(-2.58 -1.57)"/></svg>