<svg id="Layer_1" data-name="Layer 1" xmlns="http://www.w3.org/2000/svg" viewBox="0 0 399.05 387.64"><defs><style>.cls-1{fill:#737373;}</style></defs><title>chat</title><path class="cls-1" d="M335.34,0H65.72C30.13,0,1,29.63,1,66.4V243.08c0,36.21,29.13,66.39,64.72,66.39h97.06l66.08,75.92c4.32,4.39,9.17,1.65,9.17-2.19l25-73.73h72.26c35.59,0,64.71-29.63,64.71-66.39V66.4C400,30.18,370.93,0,335.34,0Zm43.14,243.08c0,24.14-19.41,44.45-43.14,44.45H240.43l-14.52,61.19-48.57-55.16L170.87,287H65.72C42,287,22.58,267.22,22.58,242.53V65.84C22.58,41.7,42,22,65.72,22H335.34c23.73,0,43.14,19.75,43.14,44.45Zm-97.06-130.6H119.64a11,11,0,0,0,0,22H281.42a11,11,0,0,0,0-22Zm0,60.91H119.64a11,11,0,0,0,0,22H281.42a11,11,0,0,0,0-22Z" transform="translate(-1)"/></svg>