<svg id="Layer_1" data-name="Layer 1" xmlns="http://www.w3.org/2000/svg" viewBox="0 0 363.3 463.74"><defs><style>.cls-1{fill:#1b75bc;}</style></defs><title>sort1</title><path class="cls-1" d="M234.83,262.19v-62.6c0-3.49,3.15-6.31,7-6.31H273.7c13.19,0,19.73-10.09,13.15-20.21L195,31.74c-6.59-10.15-19.7-10.13-26.29,0L77,173.07c-6.6,10.15,0,20.21,13.14,20.21H122c3.86,0,7,2.82,7,6.31v62.6c0,10.41,9.47,18.84,21.2,18.84h63.48C225.35,281,234.83,272.6,234.83,262.19Zm-14.11-62.6v62.6c0,3.49-3.17,6.31-7.08,6.31H150.16c-3.92,0-7.08-2.81-7.08-6.31v-62.6c0-10.41-9.45-18.85-21.12-18.85H90.09c-2.32,0-2.08.38-.92-1.41L181,38c1.16-1.77.67-1.77,1.83,0l91.82,141.33c1.15,1.78,1.38,1.41-.93,1.41H241.84C230.17,180.74,220.72,189.19,220.72,199.59ZM421.9,318.72H390.05c-3.87,0-7-2.81-7-6.3V249.81c0-10.4-9.46-18.84-21.18-18.84H298.36c-11.71,0-21.19,8.44-21.19,18.84v62.61c0,3.48-3.15,6.3-7,6.3H238.3c-13.19,0-19.73,10.09-13.15,20.22L317,480.26c6.6,10.16,19.71,10.13,26.28,0l91.82-141.32C441.65,328.78,435.1,318.72,421.9,318.72Zm.93,13.95L331,474c-1.16,1.78-.68,1.78-1.83,0L237.38,332.67c-1.16-1.78-1.39-1.42.92-1.42h31.87c11.66,0,21.12-8.44,21.12-18.83V249.81c0-3.48,3.16-6.3,7.07-6.3h63.49c3.92,0,7.08,2.81,7.08,6.3v62.61c0,10.39,9.44,18.83,21.12,18.83H421.9C424.24,331.25,424,330.88,422.83,332.67Z" transform="translate(-74.35 -24.13)"/></svg>